Patient4_TMGait_0pt7_02_left_34_GRF.mot
version=1
nRows=78
nColumns=19
inDegrees=no
endheader
time	F1x	F1y	F1z	M1x	M1y	M1z	F2x	F2y	F2z	M2x	M2y	M2z	EC1x	EC1y	EC1z	EC2x	EC2y	EC2z
38.87	-5.9592	-9.0979	-8.8592	0.87855	9.6102	3.9764	2.4447	775.144	-65.8719	288.5455	91.8184	895.6346	-0.0592	0.0182	-0.0073	-0.0462	0.0165	0.9585
38.8816	-3.8621	-4.998	-5.8017	0.19374	6.3841	3.8432	-11.4672	766.9235	-68.423	288.6935	95.209	885.5593	-0.0592	0.0182	-0.0073	-0.0462	0.0165	0.9585
38.8933	-2.1476	-1.4253	-3.2894	-0.41365	3.6956	3.9209	-22.7144	759.9469	-70.1479	288.8693	97.2092	875.471	-0.0592	0.0182	-0.0073	-0.0462	0.0165	0.9585
38.9049	-0.87187	1.391	-1.4013	-0.89835	1.6518	4.1379	-30.6078	754.6746	-70.8401	289.0712	97.5666	865.878	-0.0592	0.0182	-0.0073	-0.0462	0.0165	0.9585
38.9166	-0.024537	3.4196	-0.13034	-1.2537	0.25114	4.4107	-35.0936	751.0981	-70.4872	289.2917	96.2899	856.887	-0.0592	0.0182	-0.0073	-0.0462	0.0165	0.9585
38.9282	0.46974	4.7265	0.64876	-1.4867	-0.62686	4.6581	-36.6177	749.005	-69.2176	289.5227	93.5873	848.5232	-0.0592	0.0182	-0.0073	-0.0462	0.0165	0.9585
38.9399	0.70102	5.4407	1.057	-1.6148	-1.1071	4.826	-35.686	747.9356	-67.1489	289.7059	89.6558	840.5156	-0.0592	0.0182	-0.0073	-0.0462	0.0165	0.9585
38.9515	0.73522	5.6536	1.2289	-1.644	-1.3343	4.821	-32.9171	747.3551	-64.5385	289.738	84.8487	832.5504	-0.0592	0.0182	-0.0073	-0.0462	0.0165	0.9585
38.9631	0.65293	5.4347	1.2687	-1.5735	-1.4208	4.5558	-28.7952	746.5277	-61.597	289.427	79.4549	824.0238	-0.0592	0.0182	-0.0073	-0.0462	0.0165	0.9585
38.9748	0.51168	4.8179	1.241	-1.3927	-1.4373	3.945	-23.7899	744.7012	-58.6504	288.5389	73.8816	814.3365	-0.0592	0.0182	-0.0073	-0.0462	0.0165	0.9585
38.9864	0.34379	3.7768	1.2028	-1.0766	-1.4454	2.8616	-18.1701	741.2623	-55.9327	286.8775	68.4082	802.9491	-0.0592	0.0182	-0.0073	-0.0462	0.0165	0.9585
38.9981	0.17409	2.2783	1.1658	-0.60408	-1.4547	1.2168	-12.1888	735.9356	-53.6996	284.3578	63.3414	789.7006	-0.0592	0.0182	-0.0073	-0.0462	0.0165	0.9585
39.0097	0.036771	0.28986	1.147	0.039898	-1.477	-1.0537	-5.96	728.8708	-52.0837	281.0643	58.8365	774.8069	-0.0592	0.0182	-0.0073	-0.0462	0.0165	0.9585
39.0214	-0.063249	-2.1476	1.1267	0.8431	-1.4859	-3.9057	0.40704	720.7702	-51.1604	277.2819	54.9946	759.0716	-0.0592	0.0182	-0.0073	-0.0462	0.0165	0.9585
39.033	-0.072751	-4.8576	1.0736	1.745	-1.4255	-7.1203	6.8141	712.572	-50.9294	273.402	51.8407	743.4844	-0.0592	0.0182	-0.0073	-0.0462	0.0165	0.9585
39.0446	0.032556	-7.4354	0.93415	2.6033	-1.2129	-10.1961	13.1346	705.3917	-51.3285	269.8752	49.3612	729.2205	-0.0592	0.0182	-0.0073	-0.0462	0.0165	0.9585
39.0563	0.32617	-9.1548	0.62608	3.1612	-0.73028	-12.244	19.2189	700.156	-52.2894	267.0894	47.5387	717.2242	-0.0592	0.0182	-0.0073	-0.0462	0.0165	0.9585
39.0679	0.8671	-8.865	0.075011	3.0166	0.13568	-11.8397	24.8933	697.4773	-53.6681	265.3104	46.2885	708.1132	-0.0592	0.0182	-0.0073	-0.0462	0.0165	0.9585
39.0796	1.7322	-4.9672	-0.81376	1.611	1.5219	-7.04	30.0503	697.5143	-55.3646	264.6248	45.5448	702.0319	-0.0592	0.0182	-0.0073	-0.0462	0.0165	0.9585
39.0912	2.945	4.6053	-2.0868	-1.7678	3.5041	4.6945	34.5878	699.8678	-57.2192	264.9047	45.174	698.5646	-0.0592	0.0182	-0.0073	-0.0462	0.0165	0.9585
39.1029	4.5255	22.2046	-3.7675	-7.9259	6.1072	26.2295	38.4895	703.6049	-59.118	265.8055	45.0618	696.7707	-0.0592	0.0182	-0.0073	-0.0462	0.0165	0.9585
39.1145	6.3333	50.1066	-5.7546	-17.6337	9.1605	60.3588	41.7318	707.28	-60.8791	266.7876	45.0288	695.2208	-0.0592	0.0182	-0.0073	-0.0462	0.0165	0.9585
39.1261	8.1388	89.8474	-7.8072	-31.3975	12.2749	108.9594	44.3071	709.0968	-62.322	267.1753	44.9013	692.18	-0.0592	0.0182	-0.0073	-0.0462	0.0165	0.9585
39.1378	9.4545	141.1823	-9.4434	-49.094	14.6759	171.7684	46.1736	707.1169	-63.2142	266.2378	44.4745	685.8111	-0.0592	0.0182	-0.0073	-0.0462	0.0165	0.9585
39.1494	9.5444	200.6285	-9.8779	-69.4705	15.1235	244.5338	47.2465	699.5162	-63.277	263.2861	43.535	674.428	-0.0592	0.0182	-0.0073	-0.0462	0.0165	0.9585
39.1611	7.3951	259.9178	-7.9922	-89.6204	11.9252	317.1655	47.4075	684.8814	-62.2704	257.7845	41.9333	656.7659	-0.0592	0.0182	-0.0073	-0.0462	0.0165	0.9585
39.1727	2.9797	307.6226	-2.7365	-105.6369	3.9946	375.59	46.5681	662.5235	-60.0734	249.4648	39.6338	632.2389	-0.0592	0.0182	-0.0073	-0.0462	0.0165	0.9585
39.1844	-2.357	339.4592	4.9057	-116.1176	-6.9635	414.2936	44.8161	632.7594	-56.7944	238.419	36.7642	601.1593	-0.0592	0.0182	-0.0073	-0.0462	0.0165	0.9585
39.196	-8.5538	360.1012	13.1024	-122.7042	-18.8526	438.882	42.3584	596.9575	-52.6767	225.105	33.4949	564.8309	-0.0592	0.0182	-0.0073	-0.0462	0.0165	0.9585
39.2076	-15.0037	376.2652	21.4345	-127.7304	-30.8572	457.4753	39.6525	556.7808	-48.1859	210.1131	30.0897	524.7473	-0.0592	0.0182	-0.0073	-0.0462	0.0165	0.9585
39.2193	-21.346	393.2673	28.4309	-133.0952	-41.2545	476.6672	37.0165	514.0285	-43.5558	194.0987	26.6132	482.5915	-0.0592	0.0182	-0.0073	-0.0462	0.0165	0.9585
39.2309	-26.9088	413.883	34.0965	-139.7629	-49.7167	499.7993	34.7602	470.2564	-38.9316	177.6538	23.0771	439.7725	-0.0592	0.0182	-0.0073	-0.0462	0.0165	0.9585
39.2426	-31.2385	438.2933	37.6953	-147.825	-55.3428	527.1417	32.888	426.7425	-34.3083	161.2754	19.4405	397.52	-0.0592	0.0182	-0.0073	-0.0462	0.0165	0.9585
39.2542	-34.0162	464.8707	39.7044	-156.6938	-58.5285	556.7358	31.4384	384.3503	-29.7086	145.3094	15.708	356.6127	-0.0592	0.0182	-0.0073	-0.0462	0.0165	0.9585
39.2659	-35.3044	491.7077	40.506	-165.6634	-59.7705	586.3701	30.1677	343.6319	-25.2102	129.9691	12.0177	317.6282	-0.0592	0.0182	-0.0073	-0.0462	0.0165	0.9585
39.2775	-35.077	517.1075	40.7556	-174.1033	-59.8399	614.1151	28.8998	304.7812	-20.9078	115.3392	8.5199	280.7045	-0.0592	0.0182	-0.0073	-0.0462	0.0165	0.9585
39.2891	-33.7145	540.0854	41.0534	-181.6245	-59.5473	638.8625	27.3534	268.0255	-16.99	101.4851	5.4825	246.0859	-0.0592	0.0182	-0.0073	-0.0462	0.0165	0.9585
39.3008	-31.5446	559.9592	41.5647	-187.9918	-59.2533	659.7871	25.424	233.3916	-13.5465	88.4246	3.031	213.7054	-0.0592	0.0182	-0.0073	-0.0462	0.0165	0.9585
39.3124	-28.9332	576.988	42.6692	-193.2784	-59.481	677.2288	23.0104	201.1053	-10.7307	76.2202	1.3411	183.7737	-0.0592	0.0182	-0.0073	-0.0462	0.0165	0.9585
39.3241	-26.037	592.0927	44.0493	-197.8382	-59.9785	692.0968	20.2368	171.2031	-8.5379	64.8972	0.3678	156.1954	-0.0592	0.0182	-0.0073	-0.0462	0.0165	0.9585
39.3357	-23.0308	606.47	45.9113	-202.0937	-60.983	705.8177	17.1336	143.7545	-6.9728	54.4764	0.08675	131.0317	-0.0592	0.0182	-0.0073	-0.0462	0.0165	0.9585
39.3474	-20.0192	621.0838	48.0238	-206.4139	-62.2835	719.3677	13.9579	118.6828	-5.8797	44.9466	0.26837	108.0925	-0.0592	0.0182	-0.0073	-0.0462	0.0165	0.9585
39.359	-17.2259	636.5416	50.5732	-211.0167	-64.1045	733.4644	10.7441	95.9677	-5.1225	36.3039	0.75859	87.3931	-0.0592	0.0182	-0.0073	-0.0462	0.0165	0.9585
39.3706	-14.6745	653.131	53.4698	-216.0193	-66.3511	748.3794	7.766	75.5563	-4.5226	28.5443	1.311	68.7923	-0.0592	0.0182	-0.0073	-0.0462	0.0165	0.9585
39.3823	-12.4829	670.8506	56.755	-221.42	-69.0858	764.1483	5.0256	57.4988	-3.9637	21.6856	1.8033	52.3929	-0.0592	0.0182	-0.0073	-0.0462	0.0165	0.9585
39.3939	-10.6399	689.4136	60.381	-227.1293	-72.2358	780.4328	2.7387	41.8062	-3.3729	15.7442	2.11	38.1381	-0.0592	0.0182	-0.0073	-0.0462	0.0165	0.9585
39.4056	-9.1044	708.4457	64.1056	-233.0184	-75.5354	796.8711	0.87816	28.684	-2.7273	10.7831	2.21	26.2877	-0.0592	0.0182	-0.0073	-0.0462	0.0165	0.9585
39.4172	-7.8159	727.2657	67.8565	-238.8657	-78.861	812.7513	-0.36926	18.1747	-2.07	6.8264	2.0886	16.8009	-0.0592	0.0182	-0.0073	-0.0462	0.0165	0.9585
39.4289	-6.705	745.2224	71.2925	-244.4539	-81.8316	827.4044	-1.0904	10.4117	-1.4403	3.9047	1.7913	9.8532	-0.0592	0.0182	-0.0073	-0.0462	0.0165	0.9585
39.4405	-5.655	761.5071	74.3962	-249.5097	-84.3652	840.0308	-1.3318	5.1422	-0.92149	1.9291	1.4204	5.1192	-0.0592	0.0182	-0.0073	-0.0462	0.0165	0.9585
39.4521	-4.6553	775.4514	76.9109	-253.8062	-86.1959	849.9615	-1.3757	2.017	-0.53076	0.75461	1.0765	2.3529	-0.0592	0.0182	-0.0073	-0.0462	0.0165	0.9585
39.4638	-3.643	786.5256	78.8843	-257.1491	-87.352	856.7171	-1.2244	0.44698	-0.26725	0.16781	0.77784	0.95462	-0.0592	0.0182	-0.0073	-0.0462	0.0165	0.9585
39.4754	-2.6271	794.4642	80.1888	-259.4375	-87.7226	860.1135	-1.0797	-0.0059691	-0.096254	-0.0065016	0.55315	0.61085	-0.0592	0.0182	-0.0073	-0.0462	0.0165	0.9585
39.4871	-1.637	799.148	80.8974	-260.6133	-87.4104	860.1031	-0.87219	0.17624	0.0016499	0.059648	0.37826	0.81949	-0.0592	0.0182	-0.0073	-0.0462	0.0165	0.9585
39.4987	-0.71365	800.5288	81.0516	-260.6467	-86.4911	856.7516	-0.73422	0.74308	0.055509	0.26222	0.26712	1.428	-0.0592	0.0182	-0.0073	-0.0462	0.0165	0.9585
39.5104	0.148	798.6654	80.7196	-259.5521	-85.0612	850.1607	-0.57963	1.4016	0.076744	0.5038	0.19503	2.0936	-0.0592	0.0182	-0.0073	-0.0462	0.0165	0.9585
39.522	0.94133	793.7647	80.0487	-257.4001	-83.2841	840.5817	-0.49584	2.1019	0.07877	0.75459	0.16911	2.849	-0.0592	0.0182	-0.0073	-0.0462	0.0165	0.9585
39.5336	1.7741	786.1848	79.0714	-254.3251	-81.1885	828.3724	-0.39072	2.6836	0.066203	0.96961	0.15542	3.4645	-0.0592	0.0182	-0.0073	-0.0462	0.0165	0.9585
39.5453	2.6762	776.4107	77.9841	-250.5037	-78.9652	814.0073	-0.35713	3.184	0.043177	1.1529	0.16781	4.0264	-0.0592	0.0182	-0.0073	-0.0462	0.0165	0.9585
39.5569	3.7352	764.9669	76.7898	-246.1393	-76.6102	797.972	-0.29732	3.5112	0.0068048	1.2811	0.18766	4.3758	-0.0592	0.0182	-0.0073	-0.0462	0.0165	0.9585
39.5686	4.9896	752.4851	75.6436	-241.4553	-74.2643	780.8979	-0.31764	3.6792	-0.050034	1.3514	0.24833	4.583	-0.0592	0.0182	-0.0073	-0.0462	0.0165	0.9585
39.5802	6.48	739.598	74.5232	-236.6797	-71.9067	763.3652	-0.30775	3.5915	-0.13043	1.3332	0.33068	4.4803	-0.0592	0.0182	-0.0073	-0.0462	0.0165	0.9585
39.5919	8.2238	726.9912	73.5313	-232.0406	-69.6348	746.0545	-0.36558	3.2307	-0.23417	1.2065	0.46006	4.0779	-0.0592	0.0182	-0.0073	-0.0462	0.0165	0.9585
39.6035	10.308	715.3337	72.6694	-227.7592	-67.4371	729.5928	-0.37671	2.46	-0.35865	0.92209	0.60883	3.1547	-0.0592	0.0182	-0.0073	-0.0462	0.0165	0.9585
39.6151	12.7605	705.2534	71.9997	-224.0322	-65.3581	714.5971	-0.42224	1.235	-0.49529	0.44938	0.78333	1.6977	-0.0592	0.0182	-0.0073	-0.0462	0.0165	0.9585
39.6268	15.7142	697.3684	71.5428	-221.0488	-63.3769	701.6559	-0.3865	-0.58707	-0.62538	-0.25855	0.93259	-0.51202	-0.0592	0.0182	-0.0073	-0.0462	0.0165	0.9585
39.6384	19.2407	692.184	71.3167	-218.9569	-61.4764	691.255	-0.33505	-2.9746	-0.72594	-1.196	1.0359	-3.4049	-0.0592	0.0182	-0.0073	-0.0462	0.0165	0.9585
39.6501	23.4331	690.0841	71.358	-217.8622	-59.6581	683.7223	-0.13675	-5.8898	-0.76042	-2.3332	1.0069	-6.973	-0.0592	0.0182	-0.0073	-0.0462	0.0165	0.9585
39.6617	28.3338	691.2894	71.6727	-217.815	-57.8978	679.2477	0.16246	-8.9792	-0.67502	-3.5309	0.77756	-10.744	-0.0592	0.0182	-0.0073	-0.0462	0.0165	0.9585
39.6734	33.9386	695.7753	72.3133	-218.791	-56.2338	677.7676	0.68627	-11.653	-0.41174	-4.5413	0.23922	-14.0469	-0.0592	0.0182	-0.0073	-0.0462	0.0165	0.9585
39.685	40.1405	703.254	73.2838	-220.6858	-54.6857	679.0125	1.3884	-12.7941	0.11612	-4.9268	-0.69798	-15.5029	-0.0592	0.0182	-0.0073	-0.0462	0.0165	0.9585
39.6966	46.8257	713.0445	74.5738	-223.2861	-53.2747	682.3666	2.3391	-10.8603	0.98877	-4.0679	-2.1417	-13.2924	-0.0592	0.0182	-0.0073	-0.0462	0.0165	0.9585
39.7083	53.7536	724.0913	76.0667	-226.2734	-51.9589	686.8949	3.4106	-3.6524	2.2805	-1.1072	-4.1249	-4.7269	-0.0592	0.0182	-0.0073	-0.0462	0.0165	0.9585
39.7199	60.7002	734.9325	77.5596	-229.2152	-50.623	691.286	4.4905	11.3806	4.0089	4.9658	-6.5985	13.2618	-0.0592	0.0182	-0.0073	-0.0462	0.0165	0.9585
39.7316	67.3699	743.777	78.7844	-231.5795	-49.1206	693.9966	5.2259	37.0938	6.0971	15.2506	-9.3141	44.1919	-0.0592	0.0182	-0.0073	-0.0462	0.0165	0.9585
39.7432	73.4581	748.4836	79.4362	-232.73	-47.2869	693.1485	5.1906	75.8535	8.3025	30.6567	-11.7767	90.9486	-0.0592	0.0182	-0.0073	-0.0462	0.0165	0.9585
39.7549	78.6209	746.7152	79.1981	-231.9613	-44.9676	686.7637	3.6583	128.7877	10.1423	51.5619	-13.0971	154.995	-0.0592	0.0182	-0.0073	-0.0462	0.0165	0.9585
39.7665	82.5217	736.0723	77.7545	-228.5474	-42.0125	672.7696	-0.26352	194.2729	10.8327	77.2434	-11.9558	234.4249	-0.0592	0.0182	-0.0073	-0.0462	0.0165	0.9585
